:SAMPLES-PER-SECOND 30
:FULLY-SPECIFIED
:DEGREES
511
root  -75.4781 39.8139 -1.2416 -23.0522 82.9857 -22.2444
RightUpLeg  -18.0567 -11.8687 4.67971
RightLeg  27.2807 -3.1873 -2.0197
RightFoot  -7.98321 0.0279697 -2.82733
RightToes  -4.65663e-010 0 -3.6325e-017
Spine  12.3761 -3.628 4.29148
Spine1  6.00445 -4.82018 6.36405
HEad  2.4211 10.9511 -9.66526
LeftShoulder1  9.19978 -13.2172 -48.0273
LeftArm  14.3987 -4.49073 -39.5188
LeftForeArm  49.6514 -40.6925 -6.51141
LeftHand  -0.244104 0.0205437 5.32207
RightShoulder  5.11284 8.65811 36.0571
RightArm  -12.957 -15.5974 39.4884
RightForeArm  15.4627 8.44549 5.23593
RightHand  -1.05817 2.07376 -16.5898
LeftUpLeg  8.88227 9.4575 3.67659
LeftLeg  24.7391 5.32889 3.06718
LeftFoot  -19.219 -0.671178 -11.6712
LeftToes  -5.82109e-011 -4.83791e-012 -1.00937e-011
512
root  -74.5705 39.7762 -1.03769 -23.5658 83.0441 -23.1854
RightUpLeg  -17.385 -12.5608 4.70775
RightLeg  28.278 -2.77829 -1.86154
RightFoot  -9.75271 -0.0252487 -2.93483
RightToes  -4.65663e-010 0 -3.6325e-017
Spine  12.2349 -3.51943 5.53307
Spine1  5.97285 -4.39975 6.22513
HEad  2.84936 10.1175 -8.56523
LeftShoulder1  9.05807 -13.0995 -47.6166
LeftArm  13.303 -4.18727 -39.3851
LeftForeArm  49.6356 -41.0455 -6.61581
LeftHand  -0.244104 0.0205437 5.32207
RightShoulder  4.96586 8.35903 35.8811
RightArm  -11.8087 -14.9621 38.6618
RightForeArm  12.4943 8.66576 5.7068
RightHand  -1.18742 2.18047 -18.2911
LeftUpLeg  4.22948 7.92748 3.86961
LeftLeg  34.2888 5.48529 4.37674
LeftFoot  -13.0429 -0.155532 -14.1443
LeftToes  -5.82109e-011 -4.83791e-012 -1.00937e-011
513
root  -73.6887 39.7659 -0.837194 -22.3472 82.8197 -22.2397
RightUpLeg  -16.4234 -12.313 4.58469
RightLeg  28.9374 -2.7455 -1.88827
RightFoot  -11.3703 -0.0769377 -2.7627
RightToes  -4.65663e-010 0 -3.6325e-017
Spine  12.0586 -3.08369 6.86298
Spine1  6.12332 -3.55005 5.61833
HEad  3.80934 9.21575 -7.60625
LeftShoulder1  8.9376 -13.0015 -47.2559
LeftArm  11.6987 -3.8143 -39.1955
LeftForeArm  49.243 -40.0205 -6.34877
LeftHand  -0.244104 0.0205437 5.32207
RightShoulder  4.82192 8.10372 35.5695
RightArm  -11.571 -13.7546 37.9929
RightForeArm  13.1342 8.41614 5.72672
RightHand  -1.07063 1.90965 -17.1172
LeftUpLeg  -1.26803 7.01221 3.80985
LeftLeg  44.1304 5.2317 5.79548
LeftFoot  -4.54047 0.668568 -11.1657
LeftToes  -5.82109e-011 -4.83791e-012 -1.00937e-011
514
root  -72.8177 39.7783 -0.664159 -22.2808 83.1153 -22.0761
RightUpLeg  -14.8045 -12.7901 4.1517
RightLeg  29.1477 -2.463 -1.73614
RightFoot  -12.9504 -0.119295 -2.25915
RightToes  -4.65663e-010 0 -3.6325e-017
Spine  12.1839 -2.81605 8.03021
Spine1  6.25919 -2.87575 5.15811
HEad  5.16876 8.3547 -6.9615
LeftShoulder1  8.93187 -12.9957 -47.2416
LeftArm  9.83588 -3.17148 -38.487
LeftForeArm  47.7815 -38.2508 -5.94523
LeftHand  -0.244104 0.0205437 5.32207
RightShoulder  4.79227 8.09632 35.3446
RightArm  -11.3316 -11.9869 37.0633
RightForeArm  14.32 7.72686 5.65599
RightHand  -1.04888 1.98895 -16.5959
LeftUpLeg  -6.4263 5.91124 3.48433
LeftLeg  52.177 4.33637 6.4201
LeftFoot  1.09514 0.697089 -6.2995
LeftToes  -5.82109e-011 -4.83791e-012 -1.00937e-011
515
root  -71.8892 39.9008 -0.486914 -19.8796 83.9709 -19.5559
RightUpLeg  -12.495 -14.2572 3.12562
RightLeg  28.2898 -1.72844 -1.26966
RightFoot  -14.0854 -0.142548 -1.95907
RightToes  -4.65663e-010 0 -3.6325e-017
Spine  12.118 -2.60616 8.50869
Spine1  6.30922 -2.41273 4.69915
HEad  6.40765 7.2482 -6.65306
LeftShoulder1  8.98623 -13.0428 -47.3972
LeftArm  8.3723 -2.25668 -37.2787
LeftForeArm  45.1532 -35.8878 -5.47312
LeftHand  -0.244104 0.0205437 5.32207
RightShoulder  4.79772 8.12617 35.2868
RightArm  -10.5044 -9.90723 35.8613
RightForeArm  14.0283 7.22006 5.82154
RightHand  -1.18321 2.42339 -17.6728
LeftUpLeg  -10.8223 4.87598 2.75723
LeftLeg  56.9246 3.50472 6.29852
LeftFoot  1.95291 0.452984 -3.95483
LeftToes  -5.82109e-011 -4.83791e-012 -1.00937e-011
516
root  -70.8946 40.1168 -0.290279 -12.4729 84.7698 -12.2516
RightUpLeg  -9.82986 -15.5113 1.70339
RightLeg  26.4351 -1.11926 -0.794163
RightFoot  -14.7321 -0.159276 -2.01339
RightToes  -4.65663e-010 0 -3.6325e-017
Spine  11.6688 -2.19946 8.47922
Spine1  6.31142 -1.86418 3.95332
HEad  7.17217 5.77377 -6.62332
LeftShoulder1  8.94406 -12.9992 -47.2971
LeftArm  7.48245 -1.17023 -36.1098
LeftForeArm  42.1053 -32.8486 -4.89035
LeftHand  -0.244104 0.0205437 5.32207
RightShoulder  4.68756 7.90501 35.1221
RightArm  -9.4338 -7.98712 34.7853
RightForeArm  13.655 7.75959 6.15768
RightHand  -1.2705 2.78939 -18.1322
LeftUpLeg  -14.5322 4.25783 1.74692
LeftLeg  57.9437 3.07599 5.82604
LeftFoot  0.387918 0.429171 -4.21704
LeftToes  -5.82109e-011 -4.83791e-012 -1.00937e-011
517
root  -69.8892 40.3239 -0.0933012 -1.41829 85.332 -1.3024
RightUpLeg  -6.95983 -15.4853 0.0887282
RightLeg  24.1765 -1.52923 -0.387394
RightFoot  -15.2832 -0.167486 -1.8718
RightToes  -4.65663e-010 0 -3.6325e-017
Spine  11.4234 -1.67774 8.28445
Spine1  6.10337 -1.2242 3.09256
HEad  7.58667 4.19607 -6.77721
LeftShoulder1  8.79732 -12.8462 -46.9491
LeftArm  6.90247 -0.0439754 -35.1574
LeftForeArm  39.3264 -29.3442 -4.22581
LeftHand  -0.244104 0.0205437 5.32207
RightShoulder  4.45018 7.47771 34.5661
RightArm  -8.37037 -6.51502 34.1465
RightForeArm  13.4097 9.47854 6.39467
RightHand  -1.23663 2.96665 -17.2983
LeftUpLeg  -17.5349 3.90642 0.589878
LeftLeg  55.8623 3.1889 5.54751
LeftFoot  -1.17588 0.44936 -4.9651
LeftToes  -5.82109e-011 -4.83791e-012 -1.00937e-011
518
root  -68.8982 40.4864 0.087838 13.0673 85.9928 13.1898
RightUpLeg  -3.86838 -14.5891 -1.67653
RightLeg  21.7248 -2.96967 0.197004
RightFoot  -15.7658 -0.156862 -1.29915
RightToes  -4.65663e-010 0 -3.6325e-017
Spine  11.6408 -1.23654 7.94505
Spine1  5.62272 -0.704145 2.29303
HEad  7.78742 3.20331 -6.9383
LeftShoulder1  8.70334 -12.7541 -46.7048
LeftArm  6.65627 0.978572 -34.0662
LeftForeArm  36.8057 -25.6751 -3.5655
LeftHand  -0.244104 0.0205437 5.32207
RightShoulder  4.20977 7.09919 33.7557
RightArm  -6.75619 -5.4133 33.7421
RightForeArm  11.1098 11.828 6.4489
RightHand  -1.23624 3.20436 -16.8313
LeftUpLeg  -19.7522 3.80021 -0.764815
LeftLeg  51.2021 3.97807 5.72263
LeftFoot  -2.22016 0.413691 -5.0137
LeftToes  -5.82109e-011 -4.83791e-012 -1.00937e-011
